<?xml version="1.0" standalone="no"?>
<!DOCTYPE svg PUBLIC "-//W3C//DTD SVG 20010904//EN"
 "http://www.w3.org/TR/2001/REC-SVG-20010904/DTD/svg10.dtd">
<svg version="1.0" xmlns="http://www.w3.org/2000/svg"
 width="512.000000pt" height="512.000000pt" viewBox="0 0 512.000000 512.000000"
 preserveAspectRatio="xMidYMid meet">

<g transform="translate(0.000000,512.000000) scale(0.100000,-0.100000)"
fill="#ffffff" stroke="none">
<path d="M482 5100 c-109 -29 -187 -74 -273 -160 -115 -113 -179 -256 -179
-399 0 -53 4 -65 29 -93 l29 -33 471 -3 471 -3 2 -1952 3 -1952 27 -81 c64
-188 209 -333 398 -397 l65 -22 1465 -3 c1294 -2 1473 -1 1535 13 214 47 385
202 450 408 28 89 36 201 15 233 -31 49 -25 49 -522 52 l-468 3 0 315 c0 335
-3 359 -49 384 -35 18 -87 12 -120 -16 l-31 -26 0 -329 0 -329 -822 0 c-541 0
-836 -4 -861 -11 -50 -13 -70 -47 -79 -131 -24 -231 -241 -401 -460 -360 -137
25 -244 107 -305 230 l-28 57 -5 2060 -5 2060 -28 82 c-15 45 -48 112 -72 149
-25 37 -45 68 -45 70 0 2 524 4 1165 4 813 0 1180 -3 1217 -11 64 -13 156 -60
192 -98 l27 -28 -73 -64 c-40 -35 -135 -124 -211 -196 l-140 -133 -794 0 -795
0 -29 -29 c-40 -40 -40 -89 0 -133 l29 -33 697 -5 696 -5 -72 -80 c-39 -44
-117 -133 -172 -197 l-100 -118 -514 0 c-564 0 -558 1 -583 -59 -16 -39 -6
-92 21 -117 20 -18 48 -19 470 -24 l449 -5 -31 -45 c-43 -64 -96 -170 -134
-270 l-33 -85 -352 -5 -352 -5 -24 -28 c-34 -40 -32 -88 5 -129 l29 -33 327
-3 327 -3 -6 -27 c-4 -15 -9 -130 -12 -257 l-6 -230 -89 -166 c-211 -395 -416
-883 -544 -1293 -54 -173 -135 -475 -135 -502 0 -61 61 -112 119 -99 49 11 69
44 106 178 43 157 72 216 144 288 83 83 209 139 314 139 47 0 89 21 105 52 6
12 30 73 53 133 122 328 382 879 423 895 11 5 120 23 240 40 121 18 253 40
293 50 138 36 299 115 399 196 29 24 56 44 59 44 3 0 5 -54 5 -119 l0 -119 31
-26 c53 -45 136 -26 158 35 7 20 11 117 11 253 l0 221 481 690 c285 410 496
722 519 770 57 118 81 211 87 347 14 289 -91 548 -250 619 -45 20 -72 24 -197
27 -79 2 -186 -1 -237 -8 -174 -22 -366 -86 -492 -164 l-55 -34 -54 48 c-58
52 -137 98 -229 133 l-58 22 -1480 2 c-1432 2 -1482 1 -1553 -17z m230 -191
c120 -25 234 -116 286 -227 13 -29 22 -55 20 -58 -3 -2 -179 -3 -391 -2 l-387
3 30 63 c51 108 144 185 263 217 65 17 111 18 179 4z m4048 -4 c18 -9 40 -36
57 -68 92 -181 97 -418 12 -605 -32 -72 -514 -770 -590 -855 -99 -111 -260
-213 -406 -257 -37 -11 -156 -33 -263 -49 -180 -27 -197 -32 -217 -56 -51 -59
-11 -165 63 -165 58 0 374 50 448 70 39 11 71 18 74 16 8 -8 -174 -255 -231
-314 -112 -115 -233 -189 -387 -236 -79 -24 -888 -151 -898 -141 -3 2 35 73
83 157 400 701 935 1356 1535 1882 69 60 135 121 147 135 35 40 30 86 -11 127
-36 36 -70 43 -109 22 -77 -40 -569 -512 -776 -743 -249 -278 -446 -530 -651
-831 l-122 -179 7 75 c21 235 101 435 254 638 316 416 929 1043 1192 1218 120
79 295 144 441 163 116 15 316 13 348 -4z m-2274 -2963 c-82 -163 -150 -317
-237 -532 l-79 -195 -84 -22 c-47 -12 -99 -29 -116 -38 -18 -9 -33 -15 -35
-13 -5 5 126 349 189 495 94 219 174 383 188 384 7 0 49 6 93 14 44 7 92 13
108 14 l27 1 -54 -108z m2304 -1448 c0 -3 -11 -29 -25 -59 -53 -112 -163 -199
-283 -224 -37 -8 -405 -11 -1223 -11 l-1171 0 31 39 c39 49 98 171 106 222 l7
39 1279 0 c703 0 1279 -3 1279 -6z"/>
<path d="M3873 1873 c-40 -8 -73 -52 -73 -97 0 -103 138 -137 185 -46 19 37
19 53 -1 91 -12 24 -72 64 -86 58 -2 -1 -13 -4 -25 -6z"/>
</g>
</svg>
